<svg id="Layer_1" data-name="Layer 1" xmlns="http://www.w3.org/2000/svg" viewBox="0 0 332.4 82.8"><defs><style>.cls-1{fill:none;stroke:#231f20;stroke-linecap:round;stroke-miterlimit:10;stroke-width:6px;}</style></defs><path id="a" class="cls-1" d="M341.6,9.6A25.6,25.6,0,1,1,316,35.2,25.6,25.6,0,0,1,341.6,9.6Zm25.6,0V60.8M341.6,9.6a25.6,25.6,0,1,0,25.6,25.6A25.6,25.6,0,0,0,341.6,9.6Z" transform="translate(-37.8 -6.6)"/><path id="l" class="cls-1" d="M316,60.8A51.2,51.2,0,0,1,264.8,9.6" transform="translate(-37.8 -6.6)"/><path id="l-2" data-name="l" class="cls-1" d="M264.8,60.8A51.2,51.2,0,0,1,213.6,9.6" transform="translate(-37.8 -6.6)"/><line id="i" class="cls-1" x1="169.4" y1="3" x2="169.4" y2="54.2"/><path id="r" class="cls-1" d="M149.6,60.8A51.2,51.2,0,0,1,200.8,9.6" transform="translate(-37.8 -6.6)"/><path id="e" class="cls-1" d="M124,60.8a25.6,25.6,0,1,1,25.6-25.6" transform="translate(-37.8 -6.6)"/><path id="p" class="cls-1" d="M92,35.2A25.6,25.6,0,1,1,66.4,9.6,25.6,25.6,0,0,1,92,35.2Zm-51.2,0V86.4" transform="translate(-37.8 -6.6)"/></svg>