<svg id="Layer_1" data-name="Layer 1" xmlns="http://www.w3.org/2000/svg" viewBox="0 0 64 64"><path d="M64,23.78h0v0l-2.62-.64h-.05l2.43-8.94-3.94-1.11,0-8.84-8.84,0L49.83.24,41.09,2.61l-.2.06L40.31.31,40.24,0h0V0L31.39,3.38,30.3,1.23,30.21,1h0V1L22.31,5.9,20.4,4l-8.07,7.25-2.76-.78L6.06,19.15,3.28,18.7,3,18.65H3L2.25,29.52,0,30.68s2.61,9.41,2.87,10S2,43.44,2,43.44L8.18,53.8l-6.78,6a.59.59,0,0,0,0,.85l2,2a.58.58,0,0,0,.85,0l6-6.76,10,6.36,1.62,1h0s1-2.38,1.57-2.11,10,2.87,10,2.87l1.16-2.25,9.93-.69.92-.07h0l-.5-3.05,8.69-3.5-.78-2.77L60,43.6,58.1,41.69l4.48-7.25.39-.62h0v0l-2.36-1.19,3-7.85ZM19.05,43.42h0l7.19-7-.05-.08,0,0h0l-.28-.45c-.3-.49-.72-1.22-1.21-2.12-.05-.11-.11-.21-.17-.32-.43-.82-.89-1.76-1.34-2.78-.25-.58-.52-1.17-.75-1.8s-.47-1.25-.67-1.9c0-.09-.06-.17-.08-.25-.18-.57-.33-1.14-.47-1.7s-.27-1.32-.4-1.94-.15-1.26-.22-1.85,0-1.16,0-1.67.09-1,.14-1.42a4.58,4.58,0,0,1,.19-.94l0-.13c.08-.37.15-.63.19-.75a1.47,1.47,0,0,0,.05-.17.56.56,0,0,1,.65-.39.52.52,0,0,1,.41.38v0a.51.51,0,0,1,0,.18v0l0,.08s-.06.3-.16.83a4.51,4.51,0,0,0-.15,1c0,.39-.06.81-.06,1.28s0,1,.09,1.52.16,1.1.28,1.69.26,1.18.46,1.78.37,1.22.62,1.82.46,1.2.72,1.78.54,1.14.8,1.69c.51,1,1,1.95,1.51,2.75l.09.15c.51.84.95,1.52,1.27,2l.15.22h0l6.73-6.55,0-.05,0-.05h0l-.22-.35c-.24-.38-.6-1-1-1.74l-.15-.27c-.36-.66-.76-1.43-1.15-2.26-.21-.47-.44-.95-.64-1.45s-.42-1-.61-1.55l-.08-.2c-.17-.46-.32-.92-.46-1.38s-.3-1.06-.44-1.56-.22-1-.31-1.49-.13-.93-.18-1.35-.05-.82-.07-1.16a6.14,6.14,0,0,1,0-.77v-.1a2.34,2.34,0,0,1,0-.62,1,1,0,0,0,0-.14.5.5,0,0,1,.49-.41.46.46,0,0,1,.47.43v.05s0,.25,0,.69a7.28,7.28,0,0,0,0,.78c0,.31.07.67.12,1.05s.14.79.23,1.22.22.89.37,1.36.29,1,.48,1.44.37,1,.59,1.47.43,1,.66,1.45.47.93.71,1.38c.44.83.89,1.6,1.29,2.25l.08.12c.44.72.82,1.28,1.07,1.64l.12.17,0,0h0l6.61-6.43c-.07-.1-.42-.7-.86-1.58a39.18,39.18,0,0,1-1.59-3.67A32.58,32.58,0,0,1,39,11.38c-.13-.55-.22-1-.28-1.34s-.09-.51-.09-.51A.5.5,0,0,1,38.93,9a.33.33,0,0,1,.46.2h0s0,.18.12.49.19.75.34,1.26a31,31,0,0,0,1.38,3.67A36.64,36.64,0,0,0,43,18.07c.32.54.58.95.74,1.19l0,.06h0L53,10.39a.45.45,0,1,1,.63.63l-7.56,7.76-1.37,1.4h0v0c.23.16.67.44,1.26.79a36.64,36.64,0,0,0,3.43,1.78A31,31,0,0,0,53,24.15c.51.15.95.27,1.26.34l.49.12h0a.26.26,0,0,1,.09.05.1.1,0,0,1,0,0,.33.33,0,0,1,.06.37.37.37,0,0,1-.07.12l0,0a.45.45,0,0,1-.13.1.53.53,0,0,1-.19.06h-.09L54,25.31c-.33-.06-.79-.15-1.34-.28a32.58,32.58,0,0,1-3.89-1.17,39.18,39.18,0,0,1-3.67-1.59c-.88-.44-1.47-.79-1.58-.86l-5.55,5.71-.87.88h0v0l.21.15c.36.25.92.63,1.64,1.07l.12.08c.65.4,1.42.85,2.25,1.29.45.24.9.48,1.38.71s1,.46,1.45.66,1,.41,1.47.59,1,.33,1.44.48.93.25,1.36.37l1.22.23,1,.12a7.28,7.28,0,0,0,.78,0h.74a.46.46,0,0,1,.43.47.5.5,0,0,1-.41.49H52a2.34,2.34,0,0,1-.62,0h-.1a4.72,4.72,0,0,1-.77,0c-.34,0-.73,0-1.16-.07s-.87-.1-1.34-.18-1-.18-1.5-.31-1-.26-1.56-.44-.92-.29-1.38-.46l-.2-.08c-.53-.19-1-.39-1.55-.61s-1-.43-1.44-.64c-.84-.39-1.61-.79-2.27-1.15l-.27-.15c-.75-.41-1.36-.77-1.74-1l-.35-.22h0l-.05,0,0,0L30.05,35.2l-.91.93h0v0l.24.17c.46.32,1.14.76,2,1.27l.15.09c.8.47,1.73,1,2.75,1.51.55.26,1.11.55,1.69.8s1.18.5,1.78.73,1.22.42,1.82.61,1.2.31,1.78.46,1.15.19,1.69.28,1.05.06,1.52.09.89,0,1.28-.06a4.51,4.51,0,0,0,.95-.15l.83-.16.08,0a.52.52,0,0,1,.61.42.56.56,0,0,1-.4.65l-.16.05a5.82,5.82,0,0,1-.75.19l-.13,0a4.58,4.58,0,0,1-.94.19c-.42.05-.9.12-1.42.14s-1.08,0-1.67,0S41.6,43.31,41,43.2,39.67,43,39,42.8s-1.13-.29-1.7-.47l-.25-.08c-.65-.2-1.29-.43-1.9-.67s-1.22-.5-1.8-.75c-1-.45-2-.91-2.78-1.34l-.32-.17c-.9-.49-1.63-.91-2.12-1.21l-.45-.29h0l-.05,0-.06,0-6,6.17-1,1h0l.27.2c.54.37,1.34.87,2.32,1.45s2.14,1.22,3.42,1.83c.65.3,1.31.62,2,.89.26.11.54.2.81.3l.51.2c.27.09.53.21.8.3.71.26,1.44.44,2.15.64s1.44.29,2.14.43,1.37.13,2,.2,1.24,0,1.81,0,1-.18,1.51-.25a5.21,5.21,0,0,0,1.12-.32l1-.34.11,0a.62.62,0,0,1,.78.36.66.66,0,0,1-.38.83L41.86,52a6.38,6.38,0,0,1-1.26.42c-.49.1-1.06.25-1.67.35s-1.29.11-2,.14-1.45,0-2.21-.11-1.54-.18-2.31-.37a23.77,23.77,0,0,1-2.32-.57c-.78-.21-1.54-.46-2.27-.73s-1.45-.56-2.14-.84c-1.37-.58-2.62-1.19-3.67-1.74s-1.9-1-2.5-1.41l-.68-.43L14.4,51.27a1.21,1.21,0,0,1-1.7,0,1.2,1.2,0,0,1,0-1.69l0,0,4.56-4.43-.43-.68c-.37-.6-.85-1.45-1.41-2.5s-1.16-2.3-1.74-3.67c-.28-.69-.59-1.39-.84-2.14s-.52-1.49-.73-2.27a23.77,23.77,0,0,1-.57-2.32c-.19-.77-.25-1.57-.37-2.31s-.07-1.51-.11-2.21.1-1.38.14-2,.25-1.18.35-1.67A6.38,6.38,0,0,1,12,22.14c.28-.69.43-1.08.43-1.08a.66.66,0,0,1,.83-.38.62.62,0,0,1,.36.78l0,.11s-.12.36-.34,1a5,5,0,0,0-.32,1.12c-.07.46-.18,1-.25,1.51s0,1.17,0,1.81.09,1.33.2,2,.22,1.42.43,2.14.38,1.44.64,2.15c.09.27.21.53.3.8s.13.34.2.51.19.55.3.81c.27.69.59,1.35.89,2,.61,1.28,1.25,2.44,1.83,3.42s1.08,1.78,1.45,2.32l.16.23Z" transform="translate(0)"/></svg>